# xmcd
#
# Track frame offsets:
#	150
#	13712
#	25097
#	40835
#	58090
#	71665
#	88847
#	100365
#	118002
#	131895
#	147637
#	159350
#	180125
#	192290
#	209162
#	220042
#
# Disc length: 3148 seconds
#
# Revision: 1
# Processed by: cddbd v1.5.1PL0 Copyright (c) Steve Scherf et al.
# Submitted via: CDex 1.50Beta5
#
DISCID=ed0c4a10
DTITLE=廃盤ベスト 10 - 廃盤ベスト 10
DYEAR=1900
DGENRE=Pop
TTITLE0=ザ・ピーナッツ/可愛い花
TTITLE1=ザ・ピーナッツ/恋のフーガ
TTITLE2=ビリー・バンバン/白いブランコ
TTITLE3=倍賞千恵子/下町の太陽
TTITLE4=ペギー葉山/学生時代
TTITLE5=江利チエミ/新妻に捧げる歌
TTITLE6=ダーク・ダックス/銀色の道
TTITLE7=中原美紗緒/夜は恋人
TTITLE8=布施明/霧の摩周湖
TTITLE9=伊東ゆかり/恋のしずく
TTITLE10=平尾昌晃/星は何でも知っている
TTITLE11=岸洋子/希望
TTITLE12=ザ・ピーナッツ/恋のバカンス
TTITLE13=仲宗根美樹/川は流れる
TTITLE14=夏木マリ/絹の靴下
TTITLE15=丸山圭子/どうぞこのまま
EXTD=
EXTT0=
EXTT1=
EXTT2=
EXTT3=
EXTT4=
EXTT5=
EXTT6=
EXTT7=
EXTT8=
EXTT9=
EXTT10=
EXTT11=
EXTT12=
EXTT13=
EXTT14=
EXTT15=
PLAYORDER=
